<svg xmlns="http://www.w3.org/2000/svg" viewBox="16 83 288 143"><path d="M57.4 186.2 L55.7 198.8 L52.4 208.7" stroke="#E8734A" stroke-width="6.0" fill="none" stroke-linecap="round" stroke-linejoin="round"/><path d="M52.4 208.7 q -10.816 0, -11.648000000000001 -1.4" stroke="#E8734A" stroke-width="6.0" fill="none" stroke-linecap="round"/><path d="M90.6 186.2 L92.3 198.8 L95.6 208.7" stroke="#E8734A" stroke-width="6.0" fill="none" stroke-linecap="round" stroke-linejoin="round"/><path d="M95.6 208.7 q 10.816 0, 11.648000000000001 -1.4" stroke="#E8734A" stroke-width="6.0" fill="none" stroke-linecap="round"/><ellipse cx="74.0" cy="154" rx="41.6" ry="35.2" fill="#E8734A"/><circle cx="35.6" cy="158.1" r="11.3" fill="#E8734A"/><circle cx="36.0" cy="148.0" r="11.3" fill="#E8734A"/><circle cx="39.9" cy="138.6" r="11.3" fill="#E8734A"/><circle cx="47.0" cy="130.5" r="11.3" fill="#E8734A"/><circle cx="56.7" cy="124.7" r="11.3" fill="#E8734A"/><circle cx="68.1" cy="121.7" r="11.3" fill="#E8734A"/><circle cx="79.9" cy="121.7" r="11.3" fill="#E8734A"/><circle cx="91.3" cy="124.7" r="11.3" fill="#E8734A"/><circle cx="101.0" cy="130.5" r="11.3" fill="#E8734A"/><circle cx="108.1" cy="138.6" r="11.3" fill="#E8734A"/><circle cx="112.0" cy="148.0" r="11.3" fill="#E8734A"/><circle cx="112.4" cy="158.1" r="11.3" fill="#E8734A"/><circle cx="36.6" cy="140.6" r="9.9" fill="#E8734A"/><circle cx="36.6" cy="154.0" r="9.9" fill="#E8734A"/><circle cx="36.6" cy="166.7" r="9.9" fill="#E8734A"/><circle cx="111.4" cy="140.6" r="9.9" fill="#E8734A"/><circle cx="111.4" cy="154.0" r="9.9" fill="#E8734A"/><circle cx="111.4" cy="166.7" r="9.9" fill="#E8734A"/><path d="M74.0 120.6 q 4.16 9.856000000000002, 0 19.712000000000003" stroke="#00000033" stroke-width="4.2" fill="none" stroke-linecap="round"/><path d="M55.7 132.2 q -13.312000000000001 4.224, -1.6640000000000001 14.080000000000002" stroke="#00000033" stroke-width="3.5" fill="none" stroke-linecap="round"/><path d="M92.3 132.2 q 13.312000000000001 4.224, 1.6640000000000001 14.080000000000002" stroke="#00000033" stroke-width="3.5" fill="none" stroke-linecap="round"/><circle cx="59.9" cy="158.2" r="6.7" fill="#fff"/><circle cx="58.9" cy="159.2" r="3.2" fill="#0a0a0a"/><circle cx="88.1" cy="158.2" r="6.7" fill="#fff"/><circle cx="89.1" cy="159.2" r="3.2" fill="#0a0a0a"/><path d="M64.0 170.9 q 9.984 8.448, 19.968 0" stroke="#0a0a0a" stroke-width="3.2" fill="none" stroke-linecap="round"/><path d="M139.2 185.2 L137.1 201.0 L133.0 213.4" stroke="#E8734A" stroke-width="7.5" fill="none" stroke-linecap="round" stroke-linejoin="round"/><path d="M133.0 213.4 q -13.52 0, -14.560000000000002 -1.8" stroke="#E8734A" stroke-width="7.5" fill="none" stroke-linecap="round"/><path d="M180.8 185.2 L182.9 201.0 L187.0 213.4" stroke="#E8734A" stroke-width="7.5" fill="none" stroke-linecap="round" stroke-linejoin="round"/><path d="M187.0 213.4 q 13.52 0, 14.560000000000002 -1.8" stroke="#E8734A" stroke-width="7.5" fill="none" stroke-linecap="round"/><ellipse cx="160.0" cy="146" rx="52.0" ry="44.0" fill="#E8734A"/><circle cx="112.0" cy="151.1" r="14.1" fill="#E8734A"/><circle cx="112.4" cy="138.6" r="14.1" fill="#E8734A"/><circle cx="117.4" cy="126.7" r="14.1" fill="#E8734A"/><circle cx="126.3" cy="116.7" r="14.1" fill="#E8734A"/><circle cx="138.4" cy="109.4" r="14.1" fill="#E8734A"/><circle cx="152.6" cy="105.6" r="14.1" fill="#E8734A"/><circle cx="167.4" cy="105.6" r="14.1" fill="#E8734A"/><circle cx="181.6" cy="109.4" r="14.1" fill="#E8734A"/><circle cx="193.7" cy="116.7" r="14.1" fill="#E8734A"/><circle cx="202.6" cy="126.7" r="14.1" fill="#E8734A"/><circle cx="207.6" cy="138.6" r="14.1" fill="#E8734A"/><circle cx="208.0" cy="151.1" r="14.1" fill="#E8734A"/><circle cx="113.2" cy="129.3" r="12.3" fill="#E8734A"/><circle cx="113.2" cy="146.0" r="12.3" fill="#E8734A"/><circle cx="113.2" cy="161.8" r="12.3" fill="#E8734A"/><circle cx="206.8" cy="129.3" r="12.3" fill="#E8734A"/><circle cx="206.8" cy="146.0" r="12.3" fill="#E8734A"/><circle cx="206.8" cy="161.8" r="12.3" fill="#E8734A"/><path d="M160.0 104.2 q 5.2 12.32, 0 24.64" stroke="#00000033" stroke-width="5.3" fill="none" stroke-linecap="round"/><path d="M137.1 118.7 q -16.64 5.279999999999999, -2.08 17.6" stroke="#00000033" stroke-width="4.4" fill="none" stroke-linecap="round"/><path d="M182.9 118.7 q 16.64 5.279999999999999, 2.08 17.6" stroke="#00000033" stroke-width="4.4" fill="none" stroke-linecap="round"/><circle cx="142.3" cy="151.3" r="8.4" fill="#fff"/><circle cx="141.3" cy="152.3" r="4.0" fill="#0a0a0a"/><circle cx="177.7" cy="151.3" r="8.4" fill="#fff"/><circle cx="178.7" cy="152.3" r="4.0" fill="#0a0a0a"/><path d="M147.5 167.1 q 12.48 10.559999999999999, 24.96 0" stroke="#0a0a0a" stroke-width="4.0" fill="none" stroke-linecap="round"/><path d="M229.4 186.2 L227.7 198.8 L224.4 208.7" stroke="#E8734A" stroke-width="6.0" fill="none" stroke-linecap="round" stroke-linejoin="round"/><path d="M224.4 208.7 q -10.816 0, -11.648000000000001 -1.4" stroke="#E8734A" stroke-width="6.0" fill="none" stroke-linecap="round"/><path d="M262.6 186.2 L264.3 198.8 L267.6 208.7" stroke="#E8734A" stroke-width="6.0" fill="none" stroke-linecap="round" stroke-linejoin="round"/><path d="M267.6 208.7 q 10.816 0, 11.648000000000001 -1.4" stroke="#E8734A" stroke-width="6.0" fill="none" stroke-linecap="round"/><ellipse cx="246.0" cy="154" rx="41.6" ry="35.2" fill="#E8734A"/><circle cx="207.6" cy="158.1" r="11.3" fill="#E8734A"/><circle cx="208.0" cy="148.0" r="11.3" fill="#E8734A"/><circle cx="211.9" cy="138.6" r="11.3" fill="#E8734A"/><circle cx="219.0" cy="130.5" r="11.3" fill="#E8734A"/><circle cx="228.7" cy="124.7" r="11.3" fill="#E8734A"/><circle cx="240.1" cy="121.7" r="11.3" fill="#E8734A"/><circle cx="251.9" cy="121.7" r="11.3" fill="#E8734A"/><circle cx="263.3" cy="124.7" r="11.3" fill="#E8734A"/><circle cx="273.0" cy="130.5" r="11.3" fill="#E8734A"/><circle cx="280.1" cy="138.6" r="11.3" fill="#E8734A"/><circle cx="284.0" cy="148.0" r="11.3" fill="#E8734A"/><circle cx="284.4" cy="158.1" r="11.3" fill="#E8734A"/><circle cx="208.6" cy="140.6" r="9.9" fill="#E8734A"/><circle cx="208.6" cy="154.0" r="9.9" fill="#E8734A"/><circle cx="208.6" cy="166.7" r="9.9" fill="#E8734A"/><circle cx="283.4" cy="140.6" r="9.9" fill="#E8734A"/><circle cx="283.4" cy="154.0" r="9.9" fill="#E8734A"/><circle cx="283.4" cy="166.7" r="9.9" fill="#E8734A"/><path d="M246.0 120.6 q 4.16 9.856000000000002, 0 19.712000000000003" stroke="#00000033" stroke-width="4.2" fill="none" stroke-linecap="round"/><path d="M227.7 132.2 q -13.312000000000001 4.224, -1.6640000000000001 14.080000000000002" stroke="#00000033" stroke-width="3.5" fill="none" stroke-linecap="round"/><path d="M264.3 132.2 q 13.312000000000001 4.224, 1.6640000000000001 14.080000000000002" stroke="#00000033" stroke-width="3.5" fill="none" stroke-linecap="round"/><circle cx="231.9" cy="158.2" r="6.7" fill="#fff"/><circle cx="230.9" cy="159.2" r="3.2" fill="#0a0a0a"/><circle cx="260.1" cy="158.2" r="6.7" fill="#fff"/><circle cx="261.1" cy="159.2" r="3.2" fill="#0a0a0a"/><path d="M236.0 170.9 q 9.984 8.448, 19.968 0" stroke="#0a0a0a" stroke-width="3.2" fill="none" stroke-linecap="round"/></svg>